<svg version="1.1" id="Layer_1" xmlns="http://www.w3.org/2000/svg" xmlns:xlink="http://www.w3.org/1999/xlink" x="0px" y="0px"
	 width="100%" viewBox="0 0 500 500" enable-background="new 0 0 500 500" xml:space="preserve">
<path fill="#FFFFFF" opacity="1.000000" stroke="none" 
	d="
M1.000000,286.000000 
	C1.000000,191.036057 1.000000,96.072113 1.000000,1.054088 
	C167.567337,1.054088 334.134705,1.054088 501.000000,1.054088 
	C501.000000,118.355812 501.000000,235.711868 500.779419,353.503601 
	C500.558807,353.939270 500.116608,353.886566 500.056702,353.532166 
	C498.182434,347.907349 493.801666,347.130005 489.119263,347.128723 
	C439.467743,347.115082 389.816254,347.138885 340.102661,346.677795 
	C340.026245,294.897614 340.013062,243.592026 339.996521,192.286453 
	C339.993439,182.773300 337.277649,180.003586 327.928741,180.002853 
	C276.622925,179.998856 225.317139,179.998550 174.011337,180.003189 
	C164.868851,180.004013 162.053818,182.803055 162.040970,191.877396 
	C161.999466,221.194092 161.963654,250.510788 161.463806,279.836548 
	C140.182617,279.848053 119.363243,279.851685 98.543877,279.852661 
	C69.729858,279.854004 40.915833,279.866821 12.101839,279.839905 
	C7.441156,279.835571 3.457838,280.785614 1.696651,285.969574 
	C1.467003,286.012268 1.000000,286.000000 1.000000,286.000000 
M55.324551,114.819519 
	C44.351562,126.110245 40.340267,140.058472 40.026840,155.345825 
	C39.892075,161.918900 43.369213,165.934021 48.681965,165.842255 
	C53.786831,165.754074 56.919758,161.904465 57.135090,155.595322 
	C57.423088,147.157288 59.888824,139.443741 63.475910,131.725113 
	C69.010597,119.815636 93.679199,119.942619 100.030090,131.679398 
	C108.146446,146.678802 109.070534,175.860474 93.549789,190.233231 
	C76.320404,206.188217 60.139648,223.275162 43.487770,239.854614 
	C40.535469,242.794113 39.068352,246.081757 40.761829,250.209656 
	C42.460617,254.350525 45.817482,255.595032 49.991711,255.589157 
	C70.823456,255.559784 91.655594,255.629868 112.486588,255.501602 
	C114.881363,255.486862 117.599136,254.992325 119.588097,253.774521 
	C123.012398,251.677887 124.243492,248.204819 122.967506,244.203598 
	C121.524681,239.679169 117.921486,238.208771 113.633163,238.183411 
	C100.467941,238.105560 87.301941,238.163116 74.136322,238.135162 
	C72.946220,238.132645 71.756630,237.893616 69.834038,237.684860 
	C81.870499,225.682816 92.783310,213.682098 104.862946,203.000977 
	C126.602036,183.778793 127.759834,147.236145 116.011658,125.456596 
	C111.016731,116.196678 104.180489,108.680954 93.423416,106.547104 
	C88.110519,105.493202 82.483269,106.021065 76.998047,105.839554 
	C68.702400,105.565033 61.727444,108.591393 55.324551,114.819519 
M432.117157,260.803436 
	C442.227905,270.054352 443.933472,290.986877 435.668854,303.339813 
	C433.347290,306.809814 430.438995,308.538330 426.115417,308.482941 
	C413.121979,308.316498 400.125000,308.403015 387.129547,308.444336 
	C385.143250,308.450623 383.100067,308.496216 381.184082,308.949799 
	C377.176666,309.898529 374.835205,312.507050 374.759125,316.737427 
	C374.685242,320.844849 376.601257,323.829742 380.534851,325.100555 
	C382.385773,325.698517 384.454224,325.807983 386.425690,325.817688 
	C398.754517,325.878357 411.083801,325.849335 423.412933,325.848053 
	C438.996094,325.846436 448.404480,319.803955 454.015808,305.130310 
	C461.370728,285.897400 459.318024,267.622864 446.911133,250.667465 
	C447.229980,250.151871 447.536926,249.583191 447.910370,249.062164 
	C460.976440,230.832733 461.267456,211.530121 451.733124,192.002808 
	C446.560028,181.407776 437.812286,175.499298 425.235016,175.900070 
	C411.919739,176.324356 398.580383,175.968155 385.251709,176.006851 
	C378.385468,176.026779 374.656006,179.121964 374.726410,184.580673 
	C374.796783,190.036560 378.540222,193.134613 385.281097,193.153641 
	C398.776398,193.191742 412.273376,193.277695 425.766418,193.099884 
	C430.048828,193.043472 433.094086,194.588501 435.469635,198.005402 
	C442.796478,208.544128 442.865997,227.605042 435.001129,237.659073 
	C433.233826,239.918320 429.653320,241.710938 426.760803,241.951187 
	C419.480164,242.555862 412.115540,242.121262 404.785065,242.173477 
	C402.968933,242.186401 401.092010,242.223389 399.352142,242.672302 
	C395.163086,243.753174 392.708588,246.488098 392.914215,250.956772 
	C393.122528,255.483948 395.462311,258.592255 400.084961,259.169891 
	C403.699707,259.621613 407.391113,259.449768 411.047577,259.579926 
	C417.842560,259.821838 424.636871,260.081970 432.117157,260.803436 
M242.265121,49.510460 
	C242.265121,77.586586 242.265121,105.662720 242.265121,134.136795 
	C239.813263,134.136795 238.009888,134.135162 236.206497,134.137100 
	C230.210770,134.143524 224.207153,133.962921 218.221649,134.213928 
	C212.758560,134.442993 209.131912,138.201294 209.194336,142.976593 
	C209.255203,147.633423 212.882919,151.526276 217.799194,151.548813 
	C239.949890,151.650375 262.101532,151.648895 284.252228,151.547150 
	C288.974030,151.525467 292.572266,147.856903 292.848053,143.462494 
	C293.113037,139.240341 290.264221,135.339691 285.729889,134.543289 
	C282.651367,134.002594 279.435913,134.180847 276.280640,134.151016 
	C270.851135,134.099670 265.420776,134.136795 259.732605,134.136795 
	C259.732605,131.417953 259.732605,129.435165 259.732605,127.452377 
	C259.732544,89.978592 259.737549,52.504810 259.718353,15.031036 
	C259.717316,13.042406 260.174591,10.643688 259.254486,9.155552 
	C257.623718,6.517967 255.458740,3.275903 252.840515,2.460833 
	C250.479126,1.725733 246.210281,3.013203 244.505951,4.936092 
	C233.134201,17.766094 222.183533,30.971464 211.196686,44.138832 
	C208.756348,47.063503 208.327988,50.457516 210.395203,53.892864 
	C213.643478,59.290936 220.152039,59.847080 224.709244,54.792488 
	C230.432739,48.444313 235.854950,41.824482 242.265305,34.316868 
	C242.265305,39.964806 242.265305,44.240791 242.265121,49.510460 
z"/>
<path fill="#F6C863" opacity="1.000000" stroke="none" 
	d="
M161.925629,279.827484 
	C161.963654,250.510788 161.999466,221.194092 162.040970,191.877396 
	C162.053818,182.803055 164.868851,180.004013 174.011337,180.003189 
	C225.317139,179.998550 276.622925,179.998856 327.928741,180.002853 
	C337.277649,180.003586 339.993439,182.773300 339.996521,192.286453 
	C340.013062,243.592026 340.026245,294.897614 340.044739,347.131073 
	C340.031799,394.626343 339.942444,441.194000 340.096893,487.760803 
	C340.114563,493.088013 339.166962,497.531219 335.000000,501.000000 
	C279.312439,501.000000 223.624878,501.000000 167.340881,500.681946 
	C163.019836,497.461426 161.841110,493.689056 161.942139,488.978851 
	C162.195435,477.170380 162.031250,465.352814 162.024857,453.538910 
	C161.993515,395.635101 161.959015,337.731293 161.925629,279.827484 
z"/>
<path fill="#EF5261" opacity="1.000000" stroke="none" 
	d="
M161.463806,279.836548 
	C161.959015,337.731293 161.993515,395.635101 162.024857,453.538910 
	C162.031250,465.352814 162.195435,477.170380 161.942139,488.978851 
	C161.841110,493.689056 163.019836,497.461426 166.872223,500.681946 
	C111.666664,501.000000 56.333332,501.000000 1.000000,501.000000 
	C1.000000,499.322601 1.000000,497.660767 1.341197,495.246490 
	C1.790358,493.844727 1.992966,493.195435 1.992849,492.546173 
	C1.980512,423.673065 1.952960,354.799988 1.926298,285.926880 
	C3.457838,280.785614 7.441156,279.835571 12.101839,279.839905 
	C40.915833,279.866821 69.729858,279.854004 98.543877,279.852661 
	C119.363243,279.851685 140.182617,279.848053 161.463806,279.836548 
z"/>
<path fill="#64B5F6" opacity="1.000000" stroke="none" 
	d="
M335.468658,501.000000 
	C339.166962,497.531219 340.114563,493.088013 340.096893,487.760803 
	C339.942444,441.194000 340.031799,394.626343 340.106781,347.605652 
	C389.816254,347.138885 439.467743,347.115082 489.119263,347.128723 
	C493.801666,347.130005 498.182434,347.907349 500.004944,354.008392 
	C500.009094,399.853180 499.994232,444.867279 500.043396,489.881348 
	C500.045288,491.587921 500.667084,493.293793 501.000000,495.000000 
	C501.000000,496.994904 501.000000,498.989807 501.000000,501.000000 
	C445.979095,501.000000 390.958221,501.000000 335.468658,501.000000 
z"/>
<path fill="#F69DA5" opacity="1.000000" stroke="none" 
	d="
M1.696651,285.969574 
	C1.952960,354.799988 1.980512,423.673065 1.992849,492.546173 
	C1.992966,493.195435 1.790358,493.844727 1.341197,494.747009 
	C1.000000,425.645782 1.000000,356.291534 1.000000,286.468658 
	C1.000000,286.000000 1.467003,286.012268 1.696651,285.969574 
z"/>
<path fill="#A8D5FA" opacity="1.000000" stroke="none" 
	d="
M501.000000,494.531342 
	C500.667084,493.293793 500.045288,491.587921 500.043396,489.881348 
	C499.994232,444.867279 500.009094,399.853180 500.064819,354.362793 
	C500.116608,353.886566 500.558807,353.939270 500.779419,353.969635 
	C501.000000,400.687561 501.000000,447.375122 501.000000,494.531342 
z"/>
<path fill="#595D6F" opacity="1.000000" stroke="none" 
	d="
M55.580742,114.570114 
	C61.727444,108.591393 68.702400,105.565033 76.998047,105.839554 
	C82.483269,106.021065 88.110519,105.493202 93.423416,106.547104 
	C104.180489,108.680954 111.016731,116.196678 116.011658,125.456596 
	C127.759834,147.236145 126.602036,183.778793 104.862946,203.000977 
	C92.783310,213.682098 81.870499,225.682816 69.834038,237.684860 
	C71.756630,237.893616 72.946220,238.132645 74.136322,238.135162 
	C87.301941,238.163116 100.467941,238.105560 113.633163,238.183411 
	C117.921486,238.208771 121.524681,239.679169 122.967506,244.203598 
	C124.243492,248.204819 123.012398,251.677887 119.588097,253.774521 
	C117.599136,254.992325 114.881363,255.486862 112.486588,255.501602 
	C91.655594,255.629868 70.823456,255.559784 49.991711,255.589157 
	C45.817482,255.595032 42.460617,254.350525 40.761829,250.209656 
	C39.068352,246.081757 40.535469,242.794113 43.487770,239.854614 
	C60.139648,223.275162 76.320404,206.188217 93.549789,190.233231 
	C109.070534,175.860474 108.146446,146.678802 100.030090,131.679398 
	C93.679199,119.942619 69.010597,119.815636 63.475910,131.725113 
	C59.888824,139.443741 57.423088,147.157288 57.135090,155.595322 
	C56.919758,161.904465 53.786831,165.754074 48.681965,165.842255 
	C43.369213,165.934021 39.892075,161.918900 40.026840,155.345825 
	C40.340267,140.058472 44.351562,126.110245 55.580742,114.570114 
z"/>
<path fill="#595D6F" opacity="1.000000" stroke="none" 
	d="
M431.774292,260.568970 
	C424.636871,260.081970 417.842560,259.821838 411.047577,259.579926 
	C407.391113,259.449768 403.699707,259.621613 400.084961,259.169891 
	C395.462311,258.592255 393.122528,255.483948 392.914215,250.956772 
	C392.708588,246.488098 395.163086,243.753174 399.352142,242.672302 
	C401.092010,242.223389 402.968933,242.186401 404.785065,242.173477 
	C412.115540,242.121262 419.480164,242.555862 426.760803,241.951187 
	C429.653320,241.710938 433.233826,239.918320 435.001129,237.659073 
	C442.865997,227.605042 442.796478,208.544128 435.469635,198.005402 
	C433.094086,194.588501 430.048828,193.043472 425.766418,193.099884 
	C412.273376,193.277695 398.776398,193.191742 385.281097,193.153641 
	C378.540222,193.134613 374.796783,190.036560 374.726410,184.580673 
	C374.656006,179.121964 378.385468,176.026779 385.251709,176.006851 
	C398.580383,175.968155 411.919739,176.324356 425.235016,175.900070 
	C437.812286,175.499298 446.560028,181.407776 451.733124,192.002808 
	C461.267456,211.530121 460.976440,230.832733 447.910370,249.062164 
	C447.536926,249.583191 447.229980,250.151871 446.911133,250.667465 
	C459.318024,267.622864 461.370728,285.897400 454.015808,305.130310 
	C448.404480,319.803955 438.996094,325.846436 423.412933,325.848053 
	C411.083801,325.849335 398.754517,325.878357 386.425690,325.817688 
	C384.454224,325.807983 382.385773,325.698517 380.534851,325.100555 
	C376.601257,323.829742 374.685242,320.844849 374.759125,316.737427 
	C374.835205,312.507050 377.176666,309.898529 381.184082,308.949799 
	C383.100067,308.496216 385.143250,308.450623 387.129547,308.444336 
	C400.125000,308.403015 413.121979,308.316498 426.115417,308.482941 
	C430.438995,308.538330 433.347290,306.809814 435.668854,303.339813 
	C443.933472,290.986877 442.227905,270.054352 431.774292,260.568970 
z"/>
<path fill="#5D6172" opacity="1.000000" stroke="none" 
	d="
M242.265213,49.013618 
	C242.265305,44.240791 242.265305,39.964806 242.265305,34.316868 
	C235.854950,41.824482 230.432739,48.444313 224.709244,54.792488 
	C220.152039,59.847080 213.643478,59.290936 210.395203,53.892864 
	C208.327988,50.457516 208.756348,47.063503 211.196686,44.138832 
	C222.183533,30.971464 233.134201,17.766094 244.505951,4.936092 
	C246.210281,3.013203 250.479126,1.725733 252.840515,2.460833 
	C255.458740,3.275903 257.623718,6.517967 259.254486,9.155552 
	C260.174591,10.643688 259.717316,13.042406 259.718353,15.031036 
	C259.737549,52.504810 259.732544,89.978592 259.732605,127.452377 
	C259.732605,129.435165 259.732605,131.417953 259.732605,134.136795 
	C265.420776,134.136795 270.851135,134.099670 276.280640,134.151016 
	C279.435913,134.180847 282.651367,134.002594 285.729889,134.543289 
	C290.264221,135.339691 293.113037,139.240341 292.848053,143.462494 
	C292.572266,147.856903 288.974030,151.525467 284.252228,151.547150 
	C262.101532,151.648895 239.949890,151.650375 217.799194,151.548813 
	C212.882919,151.526276 209.255203,147.633423 209.194336,142.976593 
	C209.131912,138.201294 212.758560,134.442993 218.221649,134.213928 
	C224.207153,133.962921 230.210770,134.143524 236.206497,134.137100 
	C238.009888,134.135162 239.813263,134.136795 242.265121,134.136795 
	C242.265121,105.662720 242.265121,77.586586 242.265213,49.013618 
z"/>
</svg>